<?xml version="1.0" encoding="UTF-8"?>
<svg width="192px" height="96px" viewBox="0 0 192 96" version="1.1" xmlns="http://www.w3.org/2000/svg" xmlns:xlink="http://www.w3.org/1999/xlink">
    <title>zo</title>
    <defs>
        <rect id="path-1" x="0" y="0" width="192" height="96"></rect>
        <rect id="path-2" x="0" y="0" width="96" height="96"></rect>
    </defs>
    <g id="Page-1" stroke="none" stroke-width="1" fill="none" fill-rule="evenodd">
        <g id="Rectangle">
            <use fill="#FFFFFF" fill-rule="evenodd" xlink:href="#path-1"></use>
            <rect stroke="#000000" stroke-width="1" x="0.5" y="0.5" width="191" height="95"></rect>
        </g>
        <g id="Rectangle">
            <use fill="#000000" fill-rule="evenodd" xlink:href="#path-2"></use>
            <rect stroke="#000000" stroke-width="2" x="1" y="1" width="94" height="94"></rect>
        </g>
        <path d="M83.7034398,29.3053221 L83.7034398,43.2268908 C83.7034398,43.5252101 82.9079216,44.022409 81.7146443,44.5196078 L94.8406947,54.5630252 C94.4429356,55.1596639 93.8462969,55.557423 92.6530196,55.557423 C92.2552605,55.557423 91.6586218,55.4579832 90.9625434,55.3585434 C85.393916,57.6456583 77.7370532,60.2310924 70.1796303,62.219888 C77.5381737,68.4845938 86.4877535,72.6610644 95.4373333,75.6442577 L95.2384538,76.837535 C89.8687059,77.8319328 85.8911148,81.8095238 83.9023193,88.0742297 C69.2846723,78.8263305 59.639014,66.3963585 54.9653445,44.022409 C51.8827115,46.3095238 48.3028796,48.4971989 44.4247283,50.3865546 C57.1530196,57.6456583 61.9261289,69.6778711 61.9261289,79.1246499 C61.9261289,90.8585434 56.2580616,95.1344538 43.6292101,95.3333333 C43.1320112,85.8865546 40.7454566,84.4943978 33.2874734,82.9033613 L33.1880336,82.0084034 L44.0269692,82.0084034 C46.8112829,82.0084034 47.7062409,80.6162465 48.104,75.4453782 C35.1768291,81.6106443 18.2720672,86.2843137 1.8645042,87.7759104 L1.56618487,86.3837535 C18.8687059,81.9089636 36.4695462,72.3627451 46.314084,61.8221289 L46.314084,61.7226891 C35.1768291,67.092437 19.3659048,71.5672269 5.24545658,73.3571429 L4.94713725,72.0644258 C18.371507,67.8879552 33.0885938,59.6344538 41.3420952,51.7787115 L41.3420952,51.6792717 C30.7020392,56.1540616 17.6754286,59.2366947 3.65442017,61.0266106 L3.15722129,59.535014 C17.476549,55.3585434 30.0059608,48.7955182 37.8617031,41.9341737 L27.3210868,41.9341737 L27.3210868,44.022409 C27.3210868,45.0168067 23.1446162,48 15.9849524,48 L13.3995182,48 L13.3995182,29.6036415 C9.52136695,31.592437 5.54377591,33.3823529 1.4667451,34.8739496 L0.770666667,34.0784314 C12.604,25.9243697 23.3434958,11.4061625 28.4149244,0.666666667 L47.8056807,4.44537815 C47.4079216,5.73809524 46.1152045,6.43417367 42.8336919,6.63305322 C41.3420952,8.42296919 39.651619,10.2128852 37.7622633,12.0028011 L53.0759888,12.0028011 L59.5395742,5.34033613 L71.0745882,15.9803922 C70.27907,16.7759104 69.1852325,17.0742297 67.196437,17.2731092 C62.6222073,19.8585434 56.7552605,22.5434174 50.9877535,24.5322129 L68.5885938,24.5322129 L73.5605826,18.0686275 L87.2832717,27.3165266 C86.6866331,28.1120448 85.5927955,28.907563 83.7034398,29.3053221 Z M27.3210868,26.1232493 L27.3210868,40.3431373 L41.441535,40.3431373 L41.441535,26.1232493 L27.3210868,26.1232493 Z M69.5829916,40.3431373 L69.5829916,26.1232493 L54.8659048,26.1232493 L54.8659048,40.3431373 L69.5829916,40.3431373 Z M28.7132437,24.5322129 L47.7062409,24.5322129 C49.7944762,21.4495798 52.1810308,16.8753501 53.5731877,13.5938375 L36.0717871,13.5938375 C32.591395,16.7759104 28.7132437,19.9579832 24.3378936,22.9411765 L28.7132437,24.5322129 Z M69.5829916,41.9341737 L57.4513389,41.9341737 L56.4569412,42.7296919 C58.9429356,49.4915966 62.7216471,55.0602241 67.2958768,59.535014 C72.5661849,54.7619048 78.1348123,48.6960784 81.3168852,44.7184874 C76.3448964,46.7072829 73.1628235,46.7072829 69.5829916,46.7072829 L69.5829916,41.9341737 Z" id="象" fill="#FFFFFF"></path>
        <g id="Group" transform="translate(97.000000, 13.000000)" fill="#000000">
            <polygon id="Z" points="17.6155064 60.9294041 51.6966821 60.9294041 51.6966821 71 0 71 34.863065 10.0705959 5.70319269 10.0705959 5.70319269 0 52.4785714 0"></polygon>
            <path d="M45.1714286,39.0362789 C45.1714286,32.568516 47.4884135,27.0664021 52.1224529,22.5297723 C56.7564923,17.9931424 62.4031841,15.7248614 69.0626976,15.7248614 C75.7529002,15.7248614 81.4302805,18.0084686 86.0950089,22.5757514 C90.6983593,27.1430342 93,32.7524316 93,39.4041119 C93,46.117098 90.6830151,51.7418216 86.0489757,56.2784515 C81.3842473,60.7844285 75.6608341,63.0373832 68.8785646,63.0373832 C62.157673,63.0373832 56.5263255,60.7384498 51.9843531,56.1405141 C47.4423807,51.6038842 45.1714286,45.9025295 45.1714286,39.0362789 Z M55.7590815,39.2201954 C55.7590815,43.6955194 56.9559347,47.2358768 59.3496769,49.8413737 C61.8047971,52.4775235 65.0424383,53.7955786 69.0626976,53.7955786 C73.113646,53.7955786 76.3512872,52.4928497 78.7757184,49.8873528 C81.2001496,47.2818559 82.412347,43.8028035 82.412347,39.450091 C82.412347,35.0973785 81.2001496,31.6183261 78.7757184,29.0128292 C76.3205982,26.3766794 73.082957,25.0586242 69.0626976,25.0586242 C65.1038163,25.0586242 61.8968636,26.3766794 59.4417434,29.0128292 C56.9866232,31.648979 55.7590815,35.0514003 55.7590815,39.2201954 Z M53.0891517,0 L85.3584766,0 L85.3584766,8.27624287 L53.0891517,8.27624287 L53.0891517,0 Z" id="ō"></path>
        </g>
    </g>
</svg>
